<?xml version="1.0" encoding="UTF-8" standalone="no"?>
<!-- Created with Inkscape (http://www.inkscape.org/) -->

<svg
   xmlns:dc="http://purl.org/dc/elements/1.1/"
   xmlns:cc="http://creativecommons.org/ns#"
   xmlns:rdf="http://www.w3.org/1999/02/22-rdf-syntax-ns#"
   xmlns:svg="http://www.w3.org/2000/svg"
   xmlns="http://www.w3.org/2000/svg"
   xmlns:sodipodi="http://sodipodi.sourceforge.net/DTD/sodipodi-0.dtd"
   xmlns:inkscape="http://www.inkscape.org/namespaces/inkscape"
   width="520.61932"
   height="520.61932"
   id="svg2"
   version="1.1"
   inkscape:version="0.48.5 r10040"
   sodipodi:docname="yarnball.svg">
  <defs
     id="defs4" />
  <sodipodi:namedview
     id="base"
     pagecolor="#ffffff"
     bordercolor="#666666"
     borderopacity="1.0"
     inkscape:pageopacity="0.0"
     inkscape:pageshadow="2"
     inkscape:zoom="0.24748737"
     inkscape:cx="-568.72001"
     inkscape:cy="138.22089"
     inkscape:document-units="px"
     inkscape:current-layer="layer1"
     showgrid="false"
     inkscape:window-width="1366"
     inkscape:window-height="721"
     inkscape:window-x="-4"
     inkscape:window-y="-4"
     inkscape:window-maximized="1"
     fit-margin-top="10"
     fit-margin-left="10"
     fit-margin-right="10"
     fit-margin-bottom="10" />
  <metadata
     id="metadata7">
    <rdf:RDF>
      <cc:Work
         rdf:about="">
        <dc:format>image/svg+xml</dc:format>
        <dc:type
           rdf:resource="http://purl.org/dc/dcmitype/StillImage" />
        <dc:title></dc:title>
      </cc:Work>
    </rdf:RDF>
  </metadata>
  <g
     inkscape:label="Layer 1"
     inkscape:groupmode="layer"
     id="layer1"
     transform="translate(-86.659095,-146.06535)">
    <g
       id="g4489">
      <path
         id="rect3843-1-7-4-2-6-7"
         d="m 595.3125,435.15625 -386.34375,179.6875 c 39.55057,26.2345 86.98384,41.53125 138,41.53125 128.33598,0 234.06916,-96.70581 248.34375,-221.21875 z"
         style="opacity:0.98000004;fill:#deaa87;fill-opacity:1;stroke:none"
         inkscape:connector-curvature="0" />
      <path
         id="rect2985-5-6-2-2-8-6"
         d="M 595.6875,432.03125 206.375,613.125 c 1.60813,1.0957 3.24027,2.15989 4.875,3.21875 l 383.75,-178.5 c 0.24258,-1.93145 0.48925,-3.86759 0.6875,-5.8125 z m -3.25,21.75 -367.34375,170.90625 c 1.80849,1.01179 3.63289,2.00096 5.46875,2.96875 l 360.625,-167.75 c 0.4429,-2.02995 0.85675,-4.07694 1.25,-6.125 z m -5.46875,22.8125 -340.90625,158.5625 c 2.04696,0.90418 4.11215,1.77459 6.1875,2.625 l 332.71875,-154.75 c 0.68666,-2.13362 1.36955,-4.27929 2,-6.4375 z M 578.5,500.75 269.96875,644.28125 c 2.3577,0.76252 4.73723,1.49371 7.125,2.1875 l 298.5,-138.84375 c 1.00742,-2.27133 1.96514,-4.56865 2.90625,-6.875 z m -12.375,26 -268.28125,124.78125 c 2.82499,0.56302 5.6728,1.06431 8.53125,1.53125 L 561.8125,534.25 c 1.47731,-2.47652 2.91936,-4.96905 4.3125,-7.5 z M 547.59375,555.59375 331.875,655.90625 c 3.63955,0.21665 7.32016,0.34697 11,0.40625 l 197.90625,-92.03125 c 2.32502,-2.8504 4.61276,-5.73463 6.8125,-8.6875 z m -31.5625,34.9375 L 378.8125,654.375 c 6.21307,-0.78978 12.3442,-1.82529 18.40625,-3.0625 L 501.8125,602.65625 c 4.8911,-3.864 9.63327,-7.91304 14.21875,-12.125 z"
         style="opacity:0.98000004;fill:#000000;fill-opacity:1;stroke:none"
         inkscape:connector-curvature="0" />
      <path
         id="rect3843-1-7-4-2"
         d="m 398.8125,161.78125 143.59375,400.5 c 34.14645,-42.74759 54.5625,-96.9407 54.5625,-155.90625 0,-120.29259 -84.96837,-220.71975 -198.15625,-244.59375 z"
         style="opacity:0.98000004;fill:#deaa87;fill-opacity:1;stroke:none"
         inkscape:connector-curvature="0" />
      <path
         id="rect2985-5-6-2-2"
         d="M 397.09375,161.40625 541.3125,563.625 c 1.23035,-1.51873 2.46109,-3.04591 3.65625,-4.59375 L 402.8125,162.65625 c -1.8948,-0.4323 -3.80784,-0.86103 -5.71875,-1.25 z m 21.375,5.375 135.96875,379.15625 c 1.16805,-1.73295 2.3121,-3.48657 3.4375,-5.25 L 424.46875,168.625 c -1.98535,-0.64673 -3.99316,-1.24572 -6,-1.84375 z m 22.34375,7.84375 125.90625,351.03125 c 1.07413,-1.97466 2.13425,-3.96237 3.15625,-5.96875 L 447.09375,177.25 c -2.07531,-0.90818 -4.17698,-1.77201 -6.28125,-2.625 z m 23.40625,10.90625 113.625,316.875 c 0.96846,-2.32567 1.9129,-4.67066 2.8125,-7.03125 L 470.84375,189.1875 c -2.18746,-1.25034 -4.39676,-2.47074 -6.625,-3.65625 z m 24.9375,15.21875 98.3125,274.15625 c 0.80594,-2.83344 1.54247,-5.68899 2.25,-8.5625 l -93.40625,-260.5 c -2.34381,-1.74829 -4.75009,-3.42673 -7.15625,-5.09375 z M 516.5,222.65625 594.625,440.5625 c 0.50991,-3.72775 0.93758,-7.4718 1.28125,-11.25 L 524.625,230.5 c -2.64903,-2.67573 -5.35813,-5.28926 -8.125,-7.84375 z m 32.625,36.625 47.40625,132.1875 c -0.40788,-6.93952 -1.09988,-13.78653 -2.0625,-20.5625 l -33.875,-94.46875 c -3.58565,-5.88186 -7.42408,-11.60697 -11.46875,-17.15625 z"
         style="opacity:0.98000004;fill:#000000;fill-opacity:1;stroke:none"
         inkscape:connector-curvature="0" />
      <path
         id="rect3843-1-7-4-7"
         d="M 596.90625,410.65625 123.875,519.28125 c 23.40463,46.1522 60.71091,84.05462 106.40625,108.21875 l 318.125,-73.0625 c 29.7254,-40.37441 47.59414,-90.01502 48.5,-143.78125 z"
         style="opacity:0.98000004;fill:#deaa87;fill-opacity:1;stroke:none"
         inkscape:connector-curvature="0" />
      <path
         id="rect2985-5-6-2-9"
         d="m 596.9375,409.09375 -473.75,108.8125 c 0.7682,1.53826 1.54497,3.07375 2.34375,4.59375 L 596.8125,414.25 c 0.0532,-1.71528 0.10656,-3.43243 0.125,-5.15625 z m -0.90625,19.03125 -463.6875,106.5 c 0.90344,1.50853 1.81587,3.01232 2.75,4.5 l 460.4375,-105.75 c 0.18758,-1.74667 0.34859,-3.49275 0.5,-5.25 z m -2.46875,19.40625 -450.53125,103.5 c 1.04417,1.4694 2.1126,2.92938 3.1875,4.375 l 446.40625,-102.5 c 0.33579,-1.78343 0.6398,-3.57841 0.9375,-5.375 z M 589.46875,467.3125 155.40625,567 c 1.21335,1.44558 2.4423,2.86381 3.6875,4.28125 L 588.0625,472.75 c 0.49561,-1.804 0.9503,-3.61743 1.40625,-5.4375 z M 583.5,487.53125 169.59375,582.5625 c 1.39865,1.40804 2.81836,2.78166 4.25,4.15625 l 407.6875,-93.625 c 0.6813,-1.84222 1.32991,-3.70013 1.96875,-5.5625 z m -8.15625,20.6875 -389.375,89.40625 c 1.60604,1.35338 3.23477,2.68672 4.875,4 L 572.6875,513.9375 c 0.9054,-1.89641 1.79761,-3.79631 2.65625,-5.71875 z M 564.5625,529.5 204.90625,612.09375 c 1.87586,1.29789 3.77489,2.56508 5.6875,3.8125 L 561.125,535.4375 c 1.18323,-1.95896 2.307,-3.94392 3.4375,-5.9375 z m -14.0625,22.09375 -323.34375,74.25 c 2.22908,1.2195 4.48035,2.4096 6.75,3.5625 L 545.9375,557.75 c 1.54719,-2.03052 3.07674,-4.07762 4.5625,-6.15625 z"
         style="opacity:0.98000004;fill:#000000;fill-opacity:1;stroke:none"
         inkscape:connector-curvature="0" />
      <path
         id="rect3843-1-7-4-7-4-2"
         d="m 346.96875,156.375 c -29.0234,0 -56.8962,4.93656 -82.8125,14.03125 l 210.5,450.90625 c 40.56264,-24.15058 73.74872,-59.4276 95.25,-101.65625 L 403.28125,162.75 c -18.09649,-4.16523 -36.95138,-6.375 -56.3125,-6.375 z"
         style="opacity:0.98000004;fill:#deaa87;fill-opacity:1;stroke:none"
         inkscape:connector-curvature="0" />
      <path
         id="rect2985-5-6-2-9-3-3"
         d="m 340.53125,156.46875 c -1.58212,0.0401 -3.17532,0.0869 -4.75,0.15625 L 531.25,575.3125 c 1.22605,-1.33666 2.4279,-2.69933 3.625,-4.0625 L 341.21875,156.46875 c -0.2291,0.005 -0.45855,-0.006 -0.6875,0 z M 356,156.5625 544.28125,559.875 c 1.15689,-1.4849 2.31367,-2.95732 3.4375,-4.46875 L 361.65625,156.8125 c -1.87443,-0.10854 -3.77096,-0.18298 -5.65625,-0.25 z m -34.59375,1.09375 c -1.71458,0.17413 -3.42084,0.38515 -5.125,0.59375 L 517.5,589.1875 c 1.28143,-1.19584 2.55646,-2.40276 3.8125,-3.625 L 321.53125,157.65625 c -0.0413,0.004 -0.0837,-0.004 -0.125,0 z m 55.65625,0.53125 179.5,384.5 c 1.07767,-1.65359 2.14822,-3.31964 3.1875,-5 L 382.9375,158.96875 c -1.95423,-0.28169 -3.90643,-0.54504 -5.875,-0.78125 z m -74.53125,2.125 c -1.69674,0.30442 -3.37783,0.66153 -5.0625,1 L 503.0625,601.65625 c 1.33951,-1.07212 2.68324,-2.1511 4,-3.25 L 302.53125,160.3125 z m 96.46875,1.5 168.84375,361.71875 c 0.985,-1.85311 1.96689,-3.71327 2.90625,-5.59375 l -165.59375,-354.75 c -2.03985,-0.48625 -4.09734,-0.93909 -6.15625,-1.375 z m -114.84375,2.53125 c -1.64079,0.42467 -3.27872,0.85552 -4.90625,1.3125 L 488,612.8125 c 1.40227,-0.95985 2.80599,-1.91877 4.1875,-2.90625 L 284.15625,164.34375 z M 266.375,169.625 c -1.58218,0.53843 -3.15101,1.11842 -4.71875,1.6875 l 210.6875,451.375 c 1.45682,-0.84622 2.90579,-1.68789 4.34375,-2.5625 L 266.375,169.625 z"
         style="opacity:0.98000004;fill:#000000;fill-opacity:1;stroke:none"
         inkscape:connector-curvature="0" />
      <path
         id="rect3843-1-7-4-2-6-7-8"
         d="M 195.28125,207.625 C 160.43111,234.26349 132.83001,269.88268 115.84375,311 l 427.9375,249.53125 c 26.68538,-34.01968 44.74444,-75.12414 50.875,-120.03125 l -399.375,-232.875 z"
         style="opacity:0.98000004;fill:#deaa87;fill-opacity:1;stroke:none"
         inkscape:connector-curvature="0" />
      <path
         id="rect2985-5-6-2-2-8-6-9"
         d="m 197.5625,205.90625 c -1.44447,1.07824 -2.86111,2.17276 -4.28125,3.28125 l 401,233.8125 c 0.26139,-1.77992 0.52633,-3.55184 0.75,-5.34375 l -397.46875,-231.75 z m -15.25,12.375 c -1.3206,1.15704 -2.64171,2.31582 -3.9375,3.5 l 412.34375,240.375 c 0.38659,-1.69657 0.74187,-3.4155 1.09375,-5.125 l -409.5,-238.75 z m -13.90625,13.125 c -1.1915,1.21586 -2.36459,2.44761 -3.53125,3.6875 l 420.90625,245.4375 c 0.50704,-1.63475 0.99455,-3.28858 1.46875,-4.9375 L 168.40625,231.40625 z m -12.59375,13.875 c -1.08787,1.28959 -2.1567,2.59454 -3.21875,3.90625 L 579.5625,498.15625 c 0.62117,-1.5727 1.25375,-3.13062 1.84375,-4.71875 L 155.8125,245.28125 z m -11.40625,14.5625 c -0.98113,1.35394 -1.9518,2.71955 -2.90625,4.09375 l 430.65625,251.125 c 0.73015,-1.50989 1.42451,-3.03588 2.125,-4.5625 l -429.875,-250.65625 z m -10.25,15.28125 c -0.87461,1.41499 -1.71551,2.84769 -2.5625,4.28125 l 431.96875,251.875 c 0.83495,-1.44471 1.63081,-2.91222 2.4375,-4.375 L 134.15625,275.125 z m -9.0625,15.96875 c -0.77139,1.48157 -1.53885,2.96998 -2.28125,4.46875 l 431,251.28125 c 0.93389,-1.37248 1.8429,-2.76439 2.75,-4.15625 L 125.09375,291.09375 z m -7.875,16.65625 c -0.65866,1.53237 -1.30878,3.077 -1.9375,4.625 l 427.5625,249.34375 c 1.05305,-1.32598 2.0985,-2.65234 3.125,-4 L 117.21875,307.75 z"
         style="opacity:0.98000004;fill:#000000;fill-opacity:1;stroke:none"
         inkscape:connector-curvature="0" />
      <path
         id="rect3843"
         d="m 106.375,338.1875 c -6.1323,21.67752 -9.40625,44.54649 -9.40625,68.1875 0,21.07863 2.619129,41.53893 7.53125,61.09375 l 484.9375,0 c 4.91212,-19.55482 7.53125,-40.01512 7.53125,-61.09375 0,-23.64101 -3.27395,-46.50998 -9.40625,-68.1875 l -481.1875,0 z"
         style="opacity:0.98000004;fill:#deaa87;fill-opacity:1;stroke:none"
         inkscape:connector-curvature="0" />
      <path
         id="rect2985"
         d="m 106.8125,336.6875 c -0.48002,1.65695 -0.92854,3.32907 -1.375,5 l 483.0625,0 c -0.44645,-1.67093 -0.89498,-3.34305 -1.375,-5 l -480.3125,0 z m -4.53125,18.34375 c -0.34672,1.66063 -0.68641,3.32745 -1,5 l 491.375,0 c -0.31359,-1.67255 -0.65328,-3.33937 -1,-5 l -489.375,0 z m -3.15625,18.375 c -0.218852,1.6611 -0.407681,3.32879 -0.59375,5 l 496.875,0 c -0.18607,-1.67121 -0.3749,-3.3389 -0.59375,-5 l -495.6875,0 z M 97.40625,391.75 c -0.09559,1.65787 -0.186871,3.33362 -0.25,5 l 499.625,0 c -0.0631,-1.66638 -0.15441,-3.34213 -0.25,-5 l -499.125,0 z m -0.375,18.34375 c 0.02443,1.6696 0.03673,3.33848 0.09375,5 l 499.6875,0 c 0.057,-1.66152 0.0693,-3.3304 0.0937,-5 l -499.875,0 z m 0.90625,18.34375 c 0.146246,1.67282 0.289717,3.33679 0.46875,5 l 497.125,0 c 0.17903,-1.66321 0.3225,-3.32718 0.46875,-5 l -498.0625,0 z m 2.3125,18.34375 c 0.27142,1.66951 0.53944,3.34176 0.84375,5 l 491.75,0 c 0.30431,-1.65824 0.57233,-3.33049 0.84375,-5 l -493.4375,0 z m 3.6875,18.375 c 0.40391,1.67596 0.81251,3.33739 1.25,5 l 483.5625,0 c 0.43749,-1.66261 0.84609,-3.32404 1.25,-5 l -486.0625,0 z"
         style="opacity:0.98000004;fill:#000000;fill-opacity:1;stroke:none"
         inkscape:connector-curvature="0" />
      <path
         id="rect3843-1"
         d="M 385.0625,159.25 102.96875,461 c 10.2568,46.01974 33.20079,87.24895 64.96875,119.84375 L 509,216.03125 C 474.50334,186.63711 431.932,166.41744 385.0625,159.25 z"
         style="opacity:0.98000004;fill:#deaa87;fill-opacity:1;stroke:none"
         inkscape:connector-curvature="0" />
      <path
         id="rect2985-5"
         d="m 383.28125,159 -280.6875,300.21875 c 0.42545,1.97679 0.87186,3.94713 1.34375,5.90625 L 389.21875,159.9375 c -1.9711,-0.33558 -3.95096,-0.64835 -5.9375,-0.9375 z m 21.3125,4.0625 -296.53125,317.15625 c 0.56552,1.83179 1.14377,3.65521 1.75,5.46875 l 300.34375,-321.25 c -1.85024,-0.48196 -3.69584,-0.93463 -5.5625,-1.375 z M 424.5,168.65625 115,499.75 c 0.67843,1.68366 1.37996,3.36599 2.09375,5.03125 l 312.625,-334.375 c -1.72949,-0.60646 -3.47212,-1.18073 -5.21875,-1.75 z m 18.65625,6.90625 -320,342.28125 c 0.79488,1.59281 1.60984,3.17677 2.4375,4.75 l 322.4375,-344.9375 c -1.61703,-0.71558 -3.24017,-1.41168 -4.875,-2.09375 z m 17.53125,8.125 -328.25,351.125 c 0.88806,1.48003 1.80114,2.94633 2.71875,4.40625 L 465.25,186.09375 c -1.51291,-0.81409 -3.03109,-1.62262 -4.5625,-2.40625 z m 16.46875,9.21875 L 142.75,550.625 c 0.98131,1.38671 1.99136,2.75936 3,4.125 L 481.5,195.625 c -1.43646,-0.91889 -2.88746,-1.82862 -4.34375,-2.71875 z m 15.5,10.3125 -338.59375,362.1875 c 1.07105,1.29782 2.15345,2.56811 3.25,3.84375 L 496.75,206.15625 c -1.34204,-1.00553 -2.73102,-1.95852 -4.09375,-2.9375 z M 507.21875,214.5 166.3125,579.1875 c 1.15788,1.21019 2.31823,2.40698 3.5,3.59375 L 511.03125,217.75 c -1.26227,-1.09888 -2.52815,-2.17623 -3.8125,-3.25 z"
         style="opacity:0.98000004;fill:#000000;fill-opacity:1;stroke:none"
         inkscape:connector-curvature="0" />
      <path
         id="rect3843-1-7"
         d="m 124.90625,291.4375 c -17.84857,34.41273 -27.9375,73.49426 -27.9375,114.9375 0,7.65767 0.357298,15.23654 1.03125,22.71875 l 322.5625,216.25 c 46.11168,-14.18357 86.52211,-41.34131 117,-77.21875 L 124.90625,291.4375 z"
         style="opacity:0.98000004;fill:#deaa87;fill-opacity:1;stroke:none"
         inkscape:connector-curvature="0" />
      <path
         id="rect2985-5-6"
         d="m 125.59375,290.15625 c -0.77356,1.4704 -1.53631,2.94999 -2.28125,4.4375 L 535.25,570.8125 c 1.10565,-1.26487 2.20087,-2.52535 3.28125,-3.8125 L 125.59375,290.15625 z m -8,16.6875 c -0.67449,1.55226 -1.32504,3.11907 -1.96875,4.6875 l 406.90625,272.8125 c 1.21328,-1.19695 2.40504,-2.40363 3.59375,-3.625 l -408.53125,-273.875 z m -6.84375,17.5 c -0.56883,1.63826 -1.12074,3.28395 -1.65625,4.9375 l 399.46875,267.8125 c 1.31439,-1.11477 2.61541,-2.23375 3.90625,-3.375 L 110.75,324.34375 z m -5.59375,18.375 c -0.45014,1.71432 -0.86681,3.42775 -1.28125,5.15625 l 389.5,261.15625 c 1.43632,-1.03945 2.86813,-2.08723 4.28125,-3.15625 l -392.5,-263.15625 z m -4.25,19.25 c -0.31967,1.78301 -0.6246,3.57909 -0.90625,5.375 l 376.875,252.6875 c 1.55368,-0.94678 3.09384,-1.92677 4.625,-2.90625 L 100.90625,361.96875 z m -2.78125,20.1875 c -0.183032,1.9041 -0.359928,3.80241 -0.5,5.71875 L 458.8125,630 c 1.70007,-0.85198 3.38483,-1.73566 5.0625,-2.625 L 98.125,382.15625 z M 97,403.53125 c -0.01064,0.95044 -0.03125,1.89079 -0.03125,2.84375 0,1.05766 0.01815,2.10169 0.03125,3.15625 l 342.0625,229.3125 c 1.86079,-0.73787 3.72395,-1.5003 5.5625,-2.28125 L 97,403.53125 z m 0.71875,22.5625 c 0.168267,2.15801 0.371029,4.29523 0.59375,6.4375 L 417.25,646.34375 c 2.05987,-0.60234 4.11878,-1.22143 6.15625,-1.875 l -325.6875,-218.375 z"
         style="opacity:0.98000004;fill:#000000;fill-opacity:1;stroke:none"
         inkscape:connector-curvature="0" />
      <path
         id="rect3843-1-7-4"
         d="m 188.625,212.90625 c -36.99804,30.31495 -65.11358,71.03344 -79.9375,117.6875 l 488.1875,82 c 0.0507,-2.07186 0.0937,-4.13468 0.0937,-6.21875 0,-48.09426 -13.58927,-93.00031 -37.125,-131.125 L 188.625,212.90625 z"
         style="opacity:0.98000004;fill:#deaa87;fill-opacity:1;stroke:none"
         inkscape:connector-curvature="0" />
      <path
         id="rect2985-5-6-2"
         d="m 190.15625,211.65625 c -1.71082,1.3795 -3.38922,2.79551 -5.0625,4.21875 L 562.25,279.21875 c -1.12022,-1.89238 -2.26923,-3.76514 -3.4375,-5.625 l -368.65625,-61.9375 z m -17.625,15.65625 c -1.46914,1.43137 -2.91006,2.87688 -4.34375,4.34375 l 404.90625,68 c -0.87668,-1.85417 -1.7669,-3.70245 -2.6875,-5.53125 l -397.875,-66.8125 z m -15.125,16.09375 c -1.26559,1.47073 -2.51835,2.93729 -3.75,4.4375 l 427.875,71.875 c -0.67546,-1.82774 -1.37708,-3.63016 -2.09375,-5.4375 l -422.03125,-70.875 z m -13,16.40625 c -1.0828,1.49393 -2.1372,3.01267 -3.1875,4.53125 L 587.875,339.375 c -0.4964,-1.78845 -1.02758,-3.57166 -1.5625,-5.34375 L 144.40625,259.8125 z m -11.125,16.71875 c -0.93113,1.52896 -1.81975,3.07471 -2.71875,4.625 L 592.40625,358.75 c -0.33844,-1.75421 -0.68759,-3.50906 -1.0625,-5.25 l -458.0625,-76.96875 z m -9.46875,17.03125 c -0.78005,1.53991 -1.53234,3.09821 -2.28125,4.65625 l 473.8125,79.59375 c -0.19614,-1.72429 -0.39396,-3.44279 -0.625,-5.15625 L 123.8125,293.5625 z m -7.90625,17.25 c -0.65256,1.57606 -1.31644,3.15788 -1.9375,4.75 L 596.75,396.65625 c -0.0649,-1.69739 -0.12013,-3.4052 -0.21875,-5.09375 l -480.625,-80.75 z m -6.5,17.5625 c -0.5243,1.59782 -1.03847,3.20065 -1.53125,4.8125 l 488.90625,82.09375 c 0.0586,-1.67188 0.0994,-3.35117 0.125,-5.03125 l -487.5,-81.875 z"
         style="opacity:0.98000004;fill:#000000;fill-opacity:1;stroke:none"
         inkscape:connector-curvature="0" />
      <path
         id="rect3843-1-7-4-2-6"
         d="m 323.09375,157.5 c -45.43572,4.30446 -87.31367,20.78992 -122.375,46.125 l 95.1875,447.5 c 16.48792,3.42261 33.55961,5.25 51.0625,5.25 27.7921,0 54.52596,-4.53586 79.5,-12.90625 L 323.09375,157.5 z"
         style="opacity:0.98000004;fill:#deaa87;fill-opacity:1;stroke:none"
         inkscape:connector-curvature="0" />
      <path
         id="rect2985-5-6-2-2-8"
         d="m 324.625,157.375 c -1.68407,0.14914 -3.35694,0.31762 -5.03125,0.5 l 103.5,486.6875 c 1.59927,-0.51069 3.19615,-1.02067 4.78125,-1.5625 L 324.625,157.375 z m -18.3125,2.3125 c -1.63887,0.26813 -3.27826,0.54391 -4.90625,0.84375 l 104,488.96875 c 1.62511,-0.38918 3.23115,-0.798 4.84375,-1.21875 L 306.3125,159.6875 z m -18,3.625 c -1.62458,0.39063 -3.23169,0.79657 -4.84375,1.21875 L 387.375,653.09375 c 1.65937,-0.26977 3.32052,-0.54148 4.96875,-0.84375 L 288.3125,163.3125 z m -17.6875,4.96875 c -1.5956,0.5112 -3.19978,0.98905 -4.78125,1.53125 L 369.125,655.40625 c 1.68418,-0.14787 3.35682,-0.3189 5.03125,-0.5 L 270.625,168.28125 z m -17.40625,6.3125 c -1.57504,0.63773 -3.15986,1.26879 -4.71875,1.9375 L 350.5625,656.3125 c 1.69069,-0.0239 3.38009,-0.0364 5.0625,-0.0937 L 253.21875,174.5938 z m -17.125,7.6875 c -1.54881,0.76783 -3.09459,1.54496 -4.625,2.34375 l 100.25,471.28125 c 1.71003,0.10285 3.43712,0.1817 5.15625,0.25 l -100.78125,-473.875 z m -16.8125,9.125 c -1.51905,0.9043 -3.03322,1.81464 -4.53125,2.75 l 97.8125,459.875 c 1.74535,0.24029 3.49334,0.45219 5.25,0.65625 L 219.28125,191.40625 z m -16.5,10.71875 c -1.48578,1.0508 -2.9759,2.10534 -4.4375,3.1875 L 293.03125,650.5 c 1.77243,0.38982 3.55744,0.77301 5.34375,1.125 l -95.59375,-449.5 z"
         style="opacity:0.98000004;fill:#000000;fill-opacity:1;stroke:none"
         inkscape:connector-curvature="0" />
    </g>
    <path
       sodipodi:type="arc"
       style="opacity:0.98000004;fill:none;stroke:#000000;stroke-width:5.70685434;stroke-miterlimit:4;stroke-opacity:1;stroke-dasharray:none"
       id="path4487"
       sodipodi:cx="537.14288"
       sodipodi:cy="-564.7807"
       sodipodi:rx="280"
       sodipodi:ry="285.71429"
       d="m 817.14288,-564.7807 c 0,157.79565 -125.36027,285.71429 -280,285.71429 -154.63973,0 -280,-127.91864 -280,-285.71429 0,-157.79565 125.36027,-285.7143 280,-285.7143 154.63973,0 280,127.91865 280,285.7143 z"
       transform="matrix(0.88503447,0,0,0.86733375,-128.42122,896.22836)" />
  </g>
</svg>
